{
  "accessors": [
    {
      "bufferView": 2,
      "componentType": 5126,
      "count": 14844,
      "max": [
        101.49654388427734,
        74.95811462402344,
        251.42092895507813
      ],
      "min": [
        -101.49739837646484,
        -125.204345703125,
        -30.0
      ],
      "type": "VEC3"
    },
    {
      "bufferView": 2,
      "byteOffset": 178128,
      "componentType": 5126,
      "count": 14844,
      "max": [
        1.0,
        1.0,
        1.0
      ],
      "min": [
        -1.0,
        -1.0,
        -1.0
      ],
      "type": "VEC3"
    },
    {
      "bufferView": 1,
      "componentType": 5126,
      "count": 14844,
      "max": [
        0.0,
        0.0
      ],
      "min": [
        0.0,
        0.0
      ],
      "type": "VEC2"
    },
    {
      "bufferView": 0,
      "componentType": 5125,
      "count": 55086,
      "type": "SCALAR"
    }
  ],
  "asset": {
    "extras": {
      "author": "fundacionastromania (https://sketchfab.com/fundacionastromania)",
      "license": "CC-BY-4.0 (http://creativecommons.org/licenses/by/4.0/)",
      "source": "https://sketchfab.com/3d-models/antena-observatorio-alma-99138553cd054735a0c4f1ef04a1f903",
      "title": "Antena Observatorio ALMA"
    },
    "generator": "Sketchfab-15.86.0",
    "version": "2.0"
  },
  "bufferViews": [
    {
      "buffer": 0,
      "byteLength": 220344,
      "name": "floatBufferViews",
      "target": 34963
    },
    {
      "buffer": 0,
      "byteLength": 118752,
      "byteOffset": 220344,
      "byteStride": 8,
      "name": "floatBufferViews",
      "target": 34962
    },
    {
      "buffer": 0,
      "byteLength": 356256,
      "byteOffset": 339096,
      "byteStride": 12,
      "name": "floatBufferViews",
      "target": 34962
    }
  ],
  "buffers": [
    {
      "byteLength": 695352,
      "uri": "scene.bin"
    }
  ],
  "extensionsRequired": [
    "KHR_materials_pbrSpecularGlossiness"
  ],
  "extensionsUsed": [
    "KHR_materials_pbrSpecularGlossiness"
  ],
  "images": [
    {
      "uri": "textures/default_diffuse.jpeg"
    }
  ],
  "materials": [
    {
      "doubleSided": true,
      "extensions": {
        "KHR_materials_pbrSpecularGlossiness": {
          "diffuseFactor": [
            0.6262876229718033,
            0.6262876229718033,
            0.6262876229718033,
            1.0
          ],
          "diffuseTexture": {
            "index": 0
          },
          "glossinessFactor": 0.6201923663005449,
          "specularFactor": [
            0.20571491265497188,
            0.20571491265497188,
            0.20571491265497188
          ]
        }
      },
      "name": "default"
    }
  ],
  "meshes": [
    {
      "name": "Object_0",
      "primitives": [
        {
          "attributes": {
            "NORMAL": 1,
            "POSITION": 0,
            "TEXCOORD_0": 2
          },
          "indices": 3,
          "material": 0,
          "mode": 4
        }
      ]
    }
  ],
  "nodes": [
    {
      "children": [
        1
      ],
      "matrix": [
        0.03030303120613098,
        0.0,
        0.0,
        0.0,
        0.0,
        6.728624592196249e-18,
        -0.03030303120613098,
        0.0,
        0.0,
        0.03030303120613098,
        6.728624592196249e-18,
        0.0,
        0.0,
        0.0,
        0.0,
        1.0
      ],
      "name": "Sketchfab_model"
    },
    {
      "children": [
        2
      ],
      "name": "Alma-Antenna.obj.cleaner.materialmerger.gles"
    },
    {
      "mesh": 0,
      "name": "Object_2"
    }
  ],
  "samplers": [
    {
      "magFilter": 9729,
      "minFilter": 9987,
      "wrapS": 10497,
      "wrapT": 10497
    }
  ],
  "scene": 0,
  "scenes": [
    {
      "name": "Sketchfab_Scene",
      "nodes": [
        0
      ]
    }
  ],
  "textures": [
    {
      "sampler": 0,
      "source": 0
    }
  ]
}
